<?xml version="1.0" encoding="UTF-8"?>
<svg id="Capa_2" data-name="Capa 2" xmlns="http://www.w3.org/2000/svg" xmlns:xlink="http://www.w3.org/1999/xlink" viewBox="0 0 1922 1080">
  <defs>
    <style>
      .cls-1, .cls-2, .cls-3, .cls-4 {
        stroke-width: 0px;
      }

      .cls-2 {
        fill: none;
      }

      .cls-3 {
        fill: #fff;
      }

      .cls-4 {
        fill: url(#Motivo_nuevo);
      }
    </style>
    <pattern id="Motivo_nuevo" data-name="Motivo nuevo" x="0" y="0" width="626.81" height="416.16" patternTransform="translate(3)" patternUnits="userSpaceOnUse" viewBox="0 0 626.81 416.16">
      <g>
        <rect class="cls-2" width="626.81" height="416.16"/>
        <path class="cls-3" d="M13.93,233.86c8.53-2.99,16.27,1.08,18.4,9.7.16.64.35,1.28.47,1.94.4,2.11.46,4.97,2.85,5.33,2.8.42,2.74-2.76,3.53-4.57,3.24-7.42,8.5-8.12,13.48-1.69,2.61,3.36,3.88,7.24,4.67,11.37.71,3.66.68,7.68,4.41,10.15,1.17.78,1.48,2.26.28,3.46-1.15,1.15-2.45.79-3.62,0-4-2.68-4.86-7-5.48-11.27-.56-3.87-1.72-7.39-3.96-10.6-2.06-2.95-3.77-3.7-5.33.41-1.46,3.87-2.68,8.47-8.14,7.82-5.55-.66-6.51-5.4-7.5-9.88-1.68-7.58-6.54-10.04-14.07-7.18v-5Z"/>
        <path class="cls-3" d="M13.93,301.82c2.53,1.49,5.1,2.92,7.59,4.48,4.56,2.87,9.19,3.82,14.65,2.37,8.02-2.13,10.31-.78,14.18,6.66,1.08,2.08,2.59,3.43,5.04,3.39,1.84-.03,2.95.91,2.83,2.66-.16,2.29-2.06,2.33-3.75,2.14-4.14-.47-7.15-2.61-8.57-6.57-1.01-2.83-2.77-5.14-5.77-4.12-9.8,3.33-18.09-.14-26.2-5.01,0-2,0-4,0-6Z"/>
        <path class="cls-3" d="M422.75,0c-.44,4.98-3.69,8.25-7.03,11.43-2.4,2.28-5.11,4.25-7.36,6.66-2.81,3.01-4.71,6.45-2.71,10.78.72,1.55.67,3.03-1.15,3.67-1.78.63-2.78-.57-3.4-2.04-2.24-5.33-.83-10.16,2.61-14.32,2.3-2.78,5.23-5.04,7.89-7.52C414.26,6.2,417.13,3.9,417.75,0h5Z"/>
        <path class="cls-3" d="M200.8,295.99c7.72,2.45,12.85,8.03,17.21,14.44,1.67,2.46,3.04,5.14,4.37,7.81,3.63,7.28,5.1,8.36,10.03,7.01,6.58-1.79,11.85-8.41,11.19-14.17-.41-3.56-2.15-6.33-5.54-7.71-1.78-.72-3.85-1.25-2.7-3.65,1.05-2.18,3.16-1.34,4.85-.69,6.58,2.55,10.06,11.45,7.21,18.56-2.44,6.09-6.96,10.1-13.15,12.07-6.94,2.21-11.44.19-14.76-6.43-3.06-6.11-6.12-12.21-11.18-17-4.88-4.62-10.45-7.64-17.41-7.4-1.12.04-2.39.43-2.99-1.05.58-3.14,3.02-2.88,5.31-2.91,2.58-.03,4.93,1.48,7.55,1.11Z"/>
        <path class="cls-3" d="M539.91,287.61c.44,8.86-3.37,17.1-9.69,24.4-2.5,2.89-5.02,5.79-7.22,8.9-5.73,8.08-7.44,16.9-4.29,26.47.6,1.81,1.94,4.18-.97,4.95-2.68.71-3.1-1.91-3.66-3.74-3.49-11.48-1.35-21.98,5.69-31.57,1.38-1.87,2.73-3.82,4.4-5.41,10.55-10.11,12.72-22.47,9.97-36.21-.16-.81-.33-1.63-.48-2.45-.27-1.48.11-2.83,1.63-3.18,1.83-.43,2.76.81,3.04,2.48.81,4.75,1.62,9.51,1.58,15.36Z"/>
        <path class="cls-3" d="M63.24,181.99c-.16,5.26-1.79,9.76-6.77,12.38-4.37,2.31-8.66,1.81-12.76-.69-1.58-.96-2.74-2.4-3.54-4.1-.62-1.32-.76-2.64.67-3.5,1.36-.82,2.47-.37,3.34.98,2.72,4.2,6.47,5.14,10.69,2.66,3.62-2.12,4.9-7.71,2.73-12.08-1.31-2.63-3.32-4.93-5.15-7.29-4.13-5.32-5.36-10.66-1.72-16.96,4.2-7.27.43-13.93-8.1-14.78-1.85-.18-3.59-.27-3.48-2.44.13-2.48,2.25-2.43,4.13-2.4,10.44.17,17.5,11.42,12.24,20.7-3.29,5.81-2.14,9.86,1.79,14.24,3.37,3.76,6.24,7.81,5.91,13.27Z"/>
        <path class="cls-3" d="M327.03,261.65c.27,2.59-.57,5.34-2.23,7.64-2.73,3.79-1.87,7.13.62,10.49,2.27,3.06,5.05,5.75,6.53,9.37,2.39,5.85,1.21,12.64-2.96,16.67-3.64,3.51-9.14,4.38-13.87,2.05-1.31-.65-2.64-1.53-3.55-2.64-1.27-1.57-3.41-3.52-1.14-5.53,2.39-2.12,3.23.66,4.49,2.05,2.36,2.59,5.31,3.52,8.56,2.01,3.75-1.75,5.12-5.1,4.94-9.03-.15-3.29-1.82-6.01-3.98-8.39-5.75-6.33-8.3-12.7-3.11-21.05,3.58-5.76-1.02-12.61-7.96-13.2-1.97-.17-4.57.32-4.38-2.56.18-2.69,2.79-2.39,4.75-2.29,7.64.42,13.24,6.39,13.3,14.44Z"/>
        <path class="cls-3" d="M84.03,368.65c.27,2.59-.57,5.34-2.23,7.64-2.73,3.79-1.87,7.13.62,10.49,2.27,3.06,5.05,5.75,6.53,9.37,2.39,5.85,1.21,12.64-2.96,16.67-3.64,3.51-9.14,4.38-13.87,2.05-1.31-.65-2.64-1.53-3.55-2.64-1.27-1.57-3.41-3.52-1.14-5.53,2.39-2.12,3.23.66,4.49,2.05,2.36,2.59,5.31,3.52,8.56,2.01,3.75-1.75,5.12-5.1,4.94-9.03-.15-3.29-1.82-6.01-3.98-8.39-5.75-6.33-8.3-12.7-3.11-21.05,3.58-5.76-1.02-12.61-7.96-13.2-1.97-.17-4.57.32-4.38-2.56.18-2.69,2.79-2.39,4.75-2.29,7.64.42,13.24,6.39,13.3,14.44Z"/>
        <path class="cls-3" d="M288.19,346.04c7.02-.04,12.4,4.22,14,10.81.12.49.25.97.36,1.45.56,2.36.43,5.75,3.41,5.94,2.4.15,2.43-3.15,3.25-5.03,3.03-6.86,8.82-7.62,13.28-1.5,2.26,3.09,3.86,6.58,4.52,10.43.72,4.23.9,8.67,4.81,11.63,1.1.83.96,2.03.08,3.08-.91,1.09-1.95,1.07-3.1.39-3.11-1.83-4.5-4.76-5.28-8.1-1.06-4.5-1.29-9.26-4.07-13.25-.94-1.36-1.74-3.2-3.53-3.23-2.14-.03-2.15,2.24-2.75,3.67-.9,2.16-1.67,4.35-3.66,5.79-3.41,2.48-8.11.9-10.13-3.64-.87-1.94-1.19-4.13-1.72-6.21-1.33-5.22-5.59-8.12-10.8-7.26-1.93.32-4.59,2.41-5.18-1.1-.56-3.31,2.73-3.05,4.83-3.65.63-.18,1.31-.2,1.67-.25Z"/>
        <path class="cls-3" d="M451.48,80.77c6.86.07,11.82,3.97,13.57,10.51.26.96.57,1.92.72,2.9.32,2.01.58,4.41,2.88,4.71,2.39.31,2.33-2.34,3.04-3.89,1.32-2.86,2.28-6.05,6.09-6.55,4.16-.55,6.37,2.25,8.42,5.14,2.45,3.47,3.48,7.46,4.17,11.6.55,3.25.88,6.63,4.03,8.77,1.24.84,1.65,2.16.58,3.45-1.25,1.5-2.75.99-3.98.04-2.76-2.13-4.08-5.08-4.75-8.48-.92-4.7-1.48-9.5-4.66-13.51-2.18-2.75-3.69-3.3-5.06.46-.23.62-.49,1.23-.73,1.85-1.32,3.42-3.02,6.65-7.33,6.21-4.19-.43-6.09-3.47-7.09-7.33-2.72-10.53-3.04-10.72-14.14-10.21-1.25.06-2.39-.06-2.71-1.5-.29-1.27.18-2.36,1.37-2.92,1.82-.85,3.72-1.45,5.58-1.25Z"/>
        <path class="cls-3" d="M277.48,13.77c6.86.07,11.82,3.97,13.57,10.51.26.96.57,1.92.72,2.9.32,2.01.58,4.41,2.88,4.71,2.39.31,2.33-2.34,3.04-3.89,1.32-2.86,2.28-6.05,6.09-6.55,4.16-.55,6.37,2.25,8.42,5.14,2.45,3.47,3.48,7.46,4.17,11.6.55,3.25.88,6.63,4.03,8.77,1.24.84,1.65,2.16.58,3.45-1.25,1.5-2.75.99-3.98.04-2.76-2.13-4.08-5.08-4.75-8.48-.92-4.7-1.48-9.5-4.66-13.51-2.18-2.75-3.69-3.3-5.06.46-.23.62-.49,1.23-.73,1.85-1.32,3.42-3.02,6.65-7.33,6.21-4.19-.43-6.09-3.47-7.09-7.33-2.72-10.53-3.04-10.72-14.14-10.21-1.25.06-2.39-.06-2.71-1.5-.29-1.27.18-2.36,1.37-2.92,1.82-.85,3.72-1.45,5.58-1.25Z"/>
        <path class="cls-3" d="M607.61,113.13c4.75.59,8.83,2.75,12.71,5.38,1.39.94,2.25,2.32,1.25,3.81-1.03,1.53-2.62,1.07-3.97.14-9.41-6.45-19.45-6.75-30.05-3.44-6.85,2.14-12.96,1.35-19.13-3.45-5.93-4.62-13.59-3.45-20.74-2.21-1.14.2-2.25.63-3.39.81-1.32.2-2.35-.48-2.68-1.72-.35-1.31.4-2.33,1.63-2.71,9.38-2.9,19.22-3.89,27.47,1.62,5.89,3.93,10.92,4.82,17.15,2.66,1.54-.54,3.23-.66,4.85-.98,4.96.25,9.93.06,14.89.09Z"/>
        <path class="cls-3" d="M579.38,210.51c1.26-7.37,5.69-13.77,13.42-17.85,1.35-.71,2.8-1.57,3.9.22,1.15,1.88.15,3.06-1.56,3.96-5.25,2.75-8.75,6.99-10.61,12.6-.77,2.32-1.04,4.59.94,6.47,2.01,1.92,4.42,2.14,6.96,1.33,2.9-.93,5.3-2.7,7.58-4.65,6.38-5.45,13.79-8.46,22.09-9.37,1.92-.21,4.36-.98,4.69,1.99.3,2.7-2.11,2.53-3.85,2.71-7.67.77-14.35,3.71-20.24,8.69-3.84,3.25-8.01,5.95-13.39,5.72-6.28-.27-10.17-4.4-9.93-11.82Z"/>
        <path class="cls-3" d="M142.7,9.88c5.33-.05,9.3,1.79,12.89,4.17,5.94,3.92,11.75,3.67,17.92.71,3.12-1.5,6.43-2.75,9.79-3.57,4.78-1.16,9.23-.12,12.88,3.43,1.19,1.16,1.83,2.58.74,3.97-1.19,1.51-2.65,1.03-3.83-.23-3.38-3.6-7.38-3.2-11.53-1.82-1.26.42-2.54.86-3.69,1.49-9.09,4.98-17.71,4.96-26.76-.8-7.55-4.81-13.42-3.11-18.41,4.05-1.1,1.58-2.13,2.74-3.93,1.59-1.93-1.23-.96-2.91-.1-4.37,3.32-5.66,8.53-8.12,14.03-8.62Z"/>
        <path class="cls-3" d="M174.11,170.06c-4.08,1.19-8.63.9-12.13,3.95-1.2,1.05-2.46.91-3.48-.34-1.14-1.39-.33-2.49.71-3.44,1.88-1.72,4.14-2.86,6.59-3.37,2.75-.58,5.57-1.03,8.38-1.14,11.2-.45,15.04,4.27,12.67,15.39-.35,1.62-.79,3.23-1.07,4.86-.45,2.54-.51,5.06,1.93,6.73,2.61,1.8,5.38,1.44,8.01.07,3.18-1.66,5.37-4.42,7.42-7.25,1.09-1.49,2.46-2.78,4.1-1.68,2.1,1.41.77,3.27-.33,4.71-3.14,4.11-6.41,8.11-11.74,9.56-9.1,2.47-15.71-3.43-14.18-12.71.43-2.62,1.21-5.18,1.63-7.8.55-3.44-.28-6.28-3.95-7.58-2.26-1.6-4.82-.05-7.16-.75.84.39,1.96-.28,2.6.78Z"/>
        <path class="cls-3" d="M413.22,123.36c4.78-.32,8.84,1.79,12.58,4.23,5.64,3.68,11.15,3.54,16.98.76,3.74-1.78,7.49-3.64,11.71-4.03,4.51-.42,8.61.41,11.77,3.99,1.12,1.27,1.53,2.58.19,3.95-1.28,1.3-2.52.69-3.45-.36-3.49-3.96-7.68-3.29-11.92-1.85-2.66.91-5.25,2.06-7.83,3.2-6.36,2.83-12.51,2.74-18.61-.87-2.56-1.51-5.26-2.94-8.07-3.85-5.15-1.68-9.9.47-14.05,6.01-1.03,1.38-1.88,3.03-3.89,1.77-1.95-1.23-1.08-2.88-.2-4.34,3.35-5.56,8.34-8.36,14.78-8.6Z"/>
        <path class="cls-3" d="M451.7,279.93c4.91,1.58,5.78,5.61,5.56,9.91-.16,3.12-1.06,6.2-1.6,9.3-.44,2.53-.61,5.12,1.72,6.84,2.53,1.86,5.38,1.59,8.03.24,3.18-1.62,5.36-4.34,7.42-7.2.97-1.35,2.17-3.54,4.33-1.74,1.92,1.6.6,3.22-.53,4.75-2.79,3.78-5.77,7.32-10.34,9.03-4.33,1.62-8.54,1.44-12.22-1.56-3.46-2.83-3.92-6.75-3.22-10.89.52-3.1,1.36-6.16,1.66-9.28.35-3.62-1.46-5.69-5.26-5.58-5.3.16-10.69-.05-15.21,3.54-1.35,1.07-2.77,1.18-3.83-.44-.98-1.48,0-2.55,1.02-3.41,2.19-1.85,4.71-3.06,7.61-3.38,4.96.41,9.91-.47,14.88-.14Z"/>
        <path class="cls-3" d="M525.95,137.58c-.13.7,0,1.77-.49,2.27-4.03,4.21-2.39,8.43-.95,13.22,1.88,6.24-1.5,11.15-6.05,15.3-3.54,3.23-8.96,4.83-9.35,10.87-.06.92-1.29,1.49-2.42,1.15-1.28-.38-1.9-1.36-1.92-2.62-.06-3.22,1.42-5.8,3.76-7.83,2.13-1.84,4.55-3.34,6.66-5.21,5.17-4.57,5.9-7.56,3.49-14.01-1.34-3.6-2.04-7.16.8-10.31,2.58-2.86,1.31-4.67-1.26-6.41-1.92-1.31-3.92-2.54-5.61-4.11-2.2-2.05-3.03-4.67-2.23-7.72.38-1.47,1.39-1.77,2.61-1.7,1.07.06,2.12.59,1.93,1.8-.71,4.38,2.75,5.62,5.46,7.36,2.93,1.88,5.14,4.17,5.57,7.94Z"/>
        <path class="cls-3" d="M621.95,24.58c-.13.7,0,1.77-.49,2.27-4.03,4.21-2.39,8.43-.95,13.22,1.88,6.24-1.5,11.15-6.05,15.3-3.54,3.23-8.96,4.83-9.35,10.87-.06.92-1.29,1.49-2.42,1.15-1.28-.38-1.9-1.36-1.92-2.62-.06-3.22,1.42-5.8,3.76-7.83,2.13-1.84,4.55-3.34,6.66-5.21,5.17-4.57,5.9-7.56,3.49-14.01-1.34-3.6-2.04-7.16.8-10.31,2.58-2.86,1.31-4.67-1.26-6.41-1.92-1.31-3.92-2.54-5.61-4.11-2.2-2.05-3.03-4.67-2.23-7.72.38-1.47,1.39-1.77,2.61-1.7,1.07.06,2.12.59,1.93,1.8-.71,4.38,2.75,5.62,5.46,7.36,2.93,1.88,5.14,4.17,5.57,7.94Z"/>
        <path class="cls-3" d="M234.92,63.44c.44-3.31,2.2-6,5.07-8.01,2.59-1.81,5.29-3.48,7.35-5.94,2.75-3.29,4.04-6.83,2-11.01-2.11-4.34-2.55-8.47,1.01-12.49,2.13-2.41-.16-3.92-1.85-5.18-2.24-1.69-5.01-2.7-6.67-5.12-1.36-1.99-2.02-4.18-1.31-6.61.36-1.23,1.05-2.14,2.43-2.05,1.36.09,2.33,1.07,2.13,2.29-.61,3.7,2.11,4.89,4.45,6.41,7.15,4.62,7.81,7,3.68,14.48-1.03,1.87-.56,3.5.01,5.24,3.22,9.86,1.4,15.38-6.99,21.46-3.05,2.2-6.71,3.88-6.75,8.56-.01,1.27-1.24,1.93-2.6,1.66-1.96-.4-1.98-1.95-1.97-3.68Z"/>
        <path class="cls-3" d="M167.51,140.74c-5.87-.17-10.43-2.15-13.54-6.82-.85-1.27-1.49-2.83.07-4.02,1.53-1.16,2.65-.21,3.8,1.01,5.56,5.89,11.12,6.84,18.09,2.33,5.62-3.63,10.81-7.02,18.12-6.9,4.93.09,8.15-4.63,11.05-8.56.88-1.2,1.69-2.47,2.65-3.6.98-1.14,2.19-1.46,3.5-.42,1.17.92,1.03,2.14.36,3.12-5.13,7.49-10.28,15.11-20.94,14.53-3.73-.21-6.3,1.8-8.91,3.82-4.33,3.36-9.15,5.28-14.25,5.51Z"/>
        <path class="cls-3" d="M463.32,182.22c.09-8.15,2.77-14.36,8.21-19.37,1.83-1.69,3.66-3.35,4.44-5.89.77-2.53.24-4.64-1.71-6.3-1.92-1.64-4.04-1.26-6.01-.02-2.25,1.42-4.4,2.97-6.64,4.41-1.34.86-2.85,1.43-3.91-.28-.98-1.58-.19-2.79,1.26-3.73,1.94-1.27,3.79-2.69,5.74-3.95,4.99-3.23,9.75-3.08,13.29.33,3.6,3.47,4.12,9.53,1.02,14.19-1.18,1.77-2.73,3.34-4.25,4.85-6.41,6.33-8.37,13.74-5.5,22.32.63,1.87,2,4.11-.75,5.04-2.73.92-3.11-1.84-3.78-3.58-1.09-2.81-1.53-5.78-1.39-8.02Z"/>
        <path class="cls-3" d="M592.32,167.22c.09-8.15,2.77-14.36,8.21-19.37,1.83-1.69,3.66-3.35,4.44-5.89.77-2.53.24-4.64-1.71-6.3-1.92-1.64-4.04-1.26-6.01-.02-2.25,1.42-4.4,2.97-6.64,4.41-1.34.86-2.85,1.43-3.91-.28-.98-1.58-.19-2.79,1.26-3.73,1.94-1.27,3.79-2.69,5.74-3.95,4.99-3.23,9.75-3.08,13.29.33,3.6,3.47,4.12,9.53,1.02,14.19-1.18,1.77-2.73,3.34-4.25,4.85-6.41,6.33-8.37,13.74-5.5,22.32.63,1.87,2,4.11-.75,5.04-2.73.92-3.11-1.84-3.78-3.58-1.09-2.81-1.53-5.78-1.39-8.02Z"/>
        <path class="cls-3" d="M156.63,403.61c1.48-.73,3.08-1.29,4.4-2.23,3.82-2.72,4.1-6.96.66-10.06-1.29-1.16-2.98-2.12-1.34-3.94,1.62-1.8,3.32-.68,4.83.49,4.85,3.77,5.11,11.13.44,15.88-2.12,2.16-4.63,3.77-7.82,3.91-3.3-.65-6.6-.63-9.91-.01-4.12-.49-7.67-2.41-10.44-5.26-5.58-5.74-11.64-5.47-18.18-2.23-.74.37-1.44.83-2.16,1.24-1.5.84-2.87.91-3.79-.8-.84-1.56.15-2.59,1.3-3.3,7.24-4.48,16.97-6.86,24.38.14,2.96,2.8,6.43,4.6,10.08,6.17,2.51,1.08,5.02,1.07,7.53.01Z"/>
        <path class="cls-3" d="M436.47,254.08c-4.94-.31-9.79-2.01-12.79-7.15-.81-1.38-1.15-2.94.43-3.96,1.32-.86,2.37-.13,3.41.99,5.84,6.29,11,7.39,17.95,2.77,5.77-3.84,11.3-7.05,18.61-7.13,4.75-.05,7.6-4.36,10.45-7.84.95-1.15,1.78-2.41,2.56-3.68.96-1.55,2.27-2.02,3.76-1.07,1.37.87,1.25,2.16.39,3.46-5.15,7.85-10.77,15.03-21.54,14.44-2.94-.16-5.03,1.31-7.14,2.98-4.52,3.59-9.52,6.04-16.1,6.19Z"/>
        <path class="cls-3" d="M13.47,392.08c-4.94-.31-9.79-2.01-12.79-7.15-.81-1.38-1.15-2.94.43-3.96,1.32-.86,2.37-.13,3.41.99,5.84,6.29,11,7.39,17.95,2.77,5.77-3.84,11.3-7.05,18.61-7.13,4.75-.05,7.6-4.36,10.45-7.84.95-1.15,1.78-2.41,2.56-3.68.96-1.55,2.27-2.02,3.76-1.07,1.37.87,1.25,2.16.39,3.46-5.15,7.85-10.77,15.03-21.54,14.44-2.94-.16-5.03,1.31-7.14,2.98-4.52,3.59-9.52,6.04-16.1,6.19Z"/>
        <path class="cls-3" d="M226.05,380.97c-3.41.19-6.58-.61-9.14-2.4-3.56-2.48-6.04-1.69-8.5,1.39-1.21,1.51-2.66,3.61-4.81,1.5-1.88-1.85.1-3.3,1.2-4.64,4.32-5.23,7.93-5.92,13.91-2.74,7.13,3.79,10.42,3.19,15.23-3.17,2.81-3.71,6.77-4.4,10.94-5.03,3.45-.52,8.17-.25,5.19-6.3-.48-.97.47-1.85,1.39-2.35,1.29-.7,2.25.1,3.08.91,2.84,2.77,1.88,9.33-2.36,10.42-7.79,2.01-14.81,4.57-20.12,11-1.23,1.49-3.92,1.66-6.01,1.4Z"/>
        <path class="cls-3" d="M241.64,124.7c.12-4.02,2.22-8.79,5.59-13.09,1.94-2.48,4.02-4.92,4.51-8.19.34-2.28-.02-4.32-2.42-5.45-2.21-1.04-3.86-.22-5.2,1.54-1.11,1.46-2.12,3.47-4.25,1.57-1.89-1.69-.48-3.37.64-4.79,2.53-3.19,5.9-4.35,9.77-3.17,4.36,1.33,6.31,4.64,6.37,9.09.06,4.81-2.58,8.49-5.33,12.06-2.38,3.08-4.46,6.3-4.74,10.25-.29,4.07-.51,8.29,5.39,8.71,1.5.11,2.48,1.09,2.09,2.74-.43,1.82-1.92,2.08-3.51,2.07-5.18-.06-8.95-5.06-8.91-13.34Z"/>
        <path class="cls-3" d="M414.64,337.7c.12-4.02,2.22-8.79,5.59-13.09,1.94-2.48,4.02-4.92,4.51-8.19.34-2.28-.02-4.32-2.42-5.45-2.21-1.04-3.86-.22-5.2,1.54-1.11,1.46-2.12,3.47-4.25,1.57-1.89-1.69-.48-3.37.64-4.79,2.53-3.19,5.9-4.35,9.77-3.17,4.36,1.33,6.31,4.64,6.37,9.09.06,4.81-2.58,8.49-5.33,12.06-2.38,3.08-4.46,6.3-4.74,10.25-.29,4.07-.51,8.29,5.39,8.71,1.5.11,2.48,1.09,2.09,2.74-.43,1.82-1.92,2.08-3.51,2.07-5.18-.06-8.95-5.06-8.91-13.34Z"/>
        <path class="cls-3" d="M12.64,137.7c.12-4.02,2.22-8.79,5.59-13.09,1.94-2.48,4.02-4.92,4.51-8.19.34-2.28-.02-4.32-2.42-5.45-2.21-1.04-3.86-.22-5.2,1.54-1.11,1.46-2.12,3.47-4.25,1.57-1.89-1.69-.48-3.37.64-4.79,2.53-3.19,5.9-4.35,9.77-3.17,4.36,1.33,6.31,4.64,6.37,9.09.06,4.81-2.58,8.49-5.33,12.06-2.38,3.08-4.46,6.3-4.74,10.25-.29,4.07-.51,8.29,5.39,8.71,1.5.11,2.48,1.09,2.09,2.74-.43,1.82-1.92,2.08-3.51,2.07-5.18-.06-8.95-5.06-8.91-13.34Z"/>
        <path class="cls-3" d="M193.94,63.99c.66-5.86,3.51-10.57,7.7-14.58,1.67-1.6,3.43-3.06,4.32-5.36,1.04-2.71.42-4.87-1.63-6.72-1.94-1.76-4-1.3-5.95-.06-2.23,1.42-4.33,3.06-6.58,4.45-1.3.8-3.02,1.3-3.98-.27-.87-1.42-.23-2.8,1.31-3.75,2.11-1.3,4.08-2.85,6.2-4.14,4.16-2.55,8.35-3.16,12.37.32,3.69,3.19,4.53,8.38,2.24,13.19-1.18,2.47-3.23,4.19-5.1,6.05-6.36,6.34-8.3,13.75-5.48,22.32.61,1.86,2.02,4.15-.73,5.05-2.65.87-3.12-1.64-3.6-3.58-.64-4.28-.45-8.63-1.09-12.9Z"/>
        <path class="cls-3" d="M517.31,206.05c5.56-.04,9.67,4.72,9.19,10.38-.34,3.97-2.32,7.2-4.69,10.27-2.33,3.03-4.52,6.12-5.25,10.05-1.08,5.85-.18,7.69,5.58,9.88,1.34.51,1.88,1.29,1.75,2.58-.14,1.43-1.18,1.78-2.44,1.98-4.81.77-9.44-3.59-9.91-9.62-.44-5.69,1.26-10.77,4.65-15.38,2.05-2.79,4.55-5.35,5.33-8.9.54-2.48.21-4.76-2.31-5.96-2.32-1.1-4.22-.22-5.51,1.91-.99,1.63-2.27,2.71-4,1.31-1.72-1.39-.62-3.07.25-4.46,1.74-2.79,4.5-3.77,7.35-4.04Z"/>
        <path class="cls-3" d="M113.7,125.44c-.36,4.22-2.07,7.43-3.51,10.78-1.52,3.54-3.09,7.33,1.93,9.72,1.26.6,1.38,1.82.97,2.99-.61,1.73-2.12,1.37-3.37,1.12-3.48-.69-6.14-5.41-5.66-9.96.32-3.02,1.64-5.7,2.92-8.41,3.23-6.81,2.72-8.67-3.47-12.45-3.36-2.05-4.86-4.83-4.05-8.76.92-4.45,3.96-7.14,7.71-9.18,1.02-.55,1.95.22,2.52,1.03.62.88.6,1.92-.19,2.73-.69.71-1.54,1.25-2.27,1.91-4.5,4.06-4.33,6.26.94,9.16,3.95,2.17,5.54,5.48,5.53,9.3Z"/>
        <path class="cls-3" d="M373.83,254.5c.26-3.96,1.89-7.05,3.34-10.22,2.89-6.32,2.33-8.21-3.68-11.6-3.51-1.98-4.87-4.84-4.19-8.7.78-4.48,3.88-7.17,7.58-9.24.9-.51,1.99,0,2.62.88.65.92.56,1.9-.21,2.72-.68.73-1.47,1.34-2.19,2.03-4.68,4.48-4.54,5.9.91,9.2,5.07,3.08,6.63,7.06,4.79,13.24-.8,2.68-2.25,5.17-3.24,7.81-1.23,3.27-1.97,6.49,2.13,8.51,1.39.68,1.85,1.97,1.09,3.35-.79,1.43-2.1,1.36-3.47.84-4.24-1.63-5.23-5.18-5.49-8.81Z"/>
        <path class="cls-3" d="M391.48,78.97c-.24,4.63-2.21,7.96-3.67,11.47-1.46,3.53-2.58,7.06,2.08,9.28,1.59.76,1.5,2.12.76,3.35-.85,1.41-2.23,1.16-3.55.69-3.5-1.25-5.82-5.88-5.19-10.33.48-3.35,2.22-6.22,3.5-9.27,2.45-5.86,1.84-7.73-3.64-10.84-3.59-2.04-5.32-4.83-4.54-8.98.85-4.48,3.98-7.12,7.62-9.28,1-.59,1.94.13,2.59.91.75.9.51,1.91-.14,2.73-.51.64-1.25,1.08-1.85,1.64-5.14,4.77-5.03,6.42.84,9.82,3.72,2.15,5.19,5.39,5.18,8.8Z"/>
        <path class="cls-3" d="M300.33,160.79c.1,3.52-1.59,6.4-3.3,9.26-1.95,3.26-4.36,6.33-4.03,10.49.1,1.33-.69,2.28-1.99,2.41-1.65.16-2.31-.98-2.55-2.44-.61-3.69.54-7.03,2.63-9.87,4.3-5.86,6.17-11.39.97-17.97-2.51-3.18-2.12-7.66-1.19-11.61.66-2.8,3.34-5.59-1.08-7.68-.59-.28-.45-1.51.02-2.3.69-1.16,1.75-1.42,2.99-1.31,3.26.31,5.85,3.92,4.21,7.55-3.12,6.93-1.89,12.85,2.28,18.67,1.01,1.41.97,3.14,1.04,4.8Z"/>
        <path class="cls-3" d="M78.76,90.57c1.25-11.76-2.24-16.76-13.63-19.55-7.55-1.85-11.51-13.45-6.68-19.59.64-.82,1.45-1.47,2.55-1.07,1.21.44,2.11,1.43,1.66,2.68-3.44,9.6,1.02,12.95,9.99,15.26,8.64,2.23,13.83,15.13,10.88,23.07-.54,1.45-1.08,3.04-2.99,2.7-1.89-.34-2.07-1.88-1.78-3.5Z"/>
        <path class="cls-3" d="M340.68,131.1c-.86-6.31-.47-12.98-5.53-18.06-1-1.01-.12-2.28.88-2.93,1.37-.88,2.51-.14,3.44.97,3.18,3.79,5.26,8.03,5.4,13.06.05,1.66.03,3.32.03,4.98,0,3.43,1.83,5.53,4.88,6.78,3.21,1.32,5.82.35,8.07-2.05,2.37-2.53,4.03-5.76,7.02-7.67,1.41-.9,3.21-2.51,4.81-.39,1.62,2.15-.1,3.18-1.77,4.2-2.92,1.78-4.35,4.96-6.67,7.32-6.66,6.78-16.83,4.57-20.36-4.43,1.02-2.95-.1-5.97.48-8.93-.36,2.38.54,4.85-.69,7.16Z"/>
        <path class="cls-3" d="M357.35,40.85c.15-7.46-5.11-14.71-12.05-15.53-10.63-1.25-12.25-9.79-9.49-19.27.38-1.31,1.36-2.45,2.95-1.99,1.48.43,1.93,1.69,1.65,3.18-.22,1.14-.51,2.27-.69,3.41-1.05,6.83.15,8.56,6.86,10.05,10.06,2.23,16.97,12.21,15.25,22.35-.35,2.06-.36,5.53-3.64,4.77-2.9-.67-1.5-3.47-1.05-5.51.14-.64.19-1.31.21-1.46Z"/>
        <path class="cls-3" d="M388.35,394.85c.15-7.46-5.11-14.71-12.05-15.53-10.63-1.25-12.25-9.79-9.49-19.27.38-1.31,1.36-2.45,2.95-1.99,1.48.43,1.93,1.69,1.65,3.18-.22,1.14-.51,2.27-.69,3.41-1.05,6.83.15,8.56,6.86,10.05,10.06,2.23,16.97,12.21,15.25,22.35-.35,2.06-.36,5.53-3.64,4.77-2.9-.67-1.5-3.47-1.05-5.51.14-.64.19-1.31.21-1.46Z"/>
        <path class="cls-3" d="M549.57,71.92c-.55,2.93-1.13,5.86-1.65,8.79-.33,1.88-1.21,3.31-3.3,2.73-1.82-.51-1.68-2.05-1.36-3.7.9-4.56,2.1-9.06,2.37-13.75.35-6.17-.75-11.88-4.11-17.15-4.12-6.48-4.71-13.38-1.96-20.53.7-1.82,1.43-4.29,4.06-3.21,2.34.96,1.2,2.89.49,4.66-2.25,5.59-1.9,11.03,1.28,16.25,1.9,3.11,3.74,6.28,4.14,10.02.16,5.3-.34,10.6.02,15.9Z"/>
        <path class="cls-3" d="M19.15,62.03c.74-3.33,2.78-5.99,4.54-8.78,2.34-3.71,2.79-7.2.04-11.07-3.73-5.25-4.23-11.07-1.81-17.06.71-1.75,1.7-3.36-1.15-4.23-1.31-.4-1.42-1.75-.99-2.96.49-1.35,1.72-1.41,2.89-1.38,3.37.08,6.07,3.53,4.51,7.24-2.88,6.87-1.93,12.69,2.08,18.75,2.49,3.76,1.39,8.03-.78,11.84-1.71,3.01-3.55,5.95-5.33,8.92-2.17.99.93,5.43-2.59,4.79-2.41-.44-.53-3.73-1.26-5.6-.06-.15-.11-.3-.16-.46Z"/>
        <path class="cls-3" d="M386.67,336.78c-.57,3.08-1.18,6.15-1.71,9.23-.32,1.83-1.01,3.38-3.16,2.87-2.25-.53-1.78-2.39-1.43-4.04.68-3.24,1.57-6.45,1.98-9.72.93-7.36.59-14.53-3.79-21.01-1.27-1.88-2.42-3.96-2.61-6.35-.12-3.95.34-7.9.04-11.86.42-1.25.8-2.51,1.28-3.73.62-1.56,1.68-2.59,3.45-1.81,1.84.81,1.57,2.35.88,3.81-3.17,6.68-1.98,12.89,1.84,18.91,1.52,2.39,2.72,4.96,3.09,7.82.06,5.29-.2,10.59.14,15.88Z"/>
        <path class="cls-3" d="M331.65,169.88c-.38,8.16-.26,8.32,7.7,10.47,10.2,2.75,16.92,13.73,14.31,23.5-.45,1.68-.74,3.98-3.31,3.5-2.8-.52-1.73-2.69-1.42-4.4,1.54-8.7-3.02-15.91-11.49-18.14-9.97-2.62-12.55-7.16-9.76-17.15.33.19.47.45.47.81,0,.08.21.16.32.24-.24-.52-.2-1.07-.13-1.6.15-1.28.75-2.45,2.13-2.18,1.18.23.98,1.52.86,2.53-.1.82-.16,1.66.32,2.42Z"/>
        <path class="cls-3" d="M116.77,223.83c-.57,3.08-1.11,6.17-1.72,9.24-.33,1.64-1.28,2.87-3.08,2.4-1.8-.47-1.92-1.94-1.56-3.6.96-4.52,2.07-9,2.41-13.67.45-6.34-.68-12.18-4.16-17.52-1.18-1.81-2.12-3.73-2.51-5.88-.4-4.99.11-9.93.95-14.85.58-1.77,1.25-3.86,3.59-3.01,2.36.85,1.56,2.76.77,4.54-2.59,5.89-1.91,11.55,1.4,16.98,1.8,2.95,3.47,5.96,3.89,9.47.01,5.3-.03,10.6.02,15.9Z"/>
        <path class="cls-3" d="M138.79,303.8c-.69,4.45-3.99,6.65-7.48,8.68-5.07,2.94-8.94,6.51-7.28,13.19.37,1.48-.28,2.71-1.83,3.02-1.62.32-2.4-.79-2.8-2.2-1.31-4.66-.33-8.91,2.56-12.68.99-1.29,2.24-2.65,3.68-3.3,7.13-3.21,10.27-8.4,9.13-16.28-.38-2.66.66-5.3,2.34-7.46,1.23-1.57,2.82-3.4,4.96-1.7,2.21,1.75.21,3.1-.94,4.48-3.11,3.73-.75,8.44-2.15,12.49-1.2-2.65-.36-5.36-.67-8.04.38,3.27-.5,6.55.48,9.82Z"/>
        <path class="cls-3" d="M108.75,282.79c-1.97,11.53-10.98,19.97-23.76,22.15-2.45.42-4.95.58-7.43.76-1.86.13-4.1.19-4.27-2.24-.17-2.5,2.02-2.58,3.92-2.59,3.5-.02,6.97-.41,10.31-1.47,9.31-2.96,15.2-9.08,17.26-18.73,1.29-1.61.39-3.48.59-5.22.22-1.95-.23-3.94.35-5.88l-.1.08c2.4-.76,2.7.66,2.77,2.54.13,3.53-.44,7.1.37,10.61Z"/>
        <path class="cls-3" d="M483.88,366.07c.15,1.06-.22,1.78-.9,2.33-.93.76-1.86.52-2.72-.11-2.4-1.75-3.72-4.27-4.48-7.01-.94-3.35-1.46-6.82-2.35-10.19-2-7.58-6.84-12.36-14.52-14.07-1.84-.41-4.13-.52-3.77-2.91.42-2.79,2.82-2.12,4.82-1.71,8.93,1.86,14.75,7.23,17.6,15.8,1.9,5.74,1.41,12.32,6.1,17.08.2.2.18.62.23.79Z"/>
        <path class="cls-3" d="M188.47,218.72c8.36.16,17.14,7.97,19.59,17.36,1.41,5.39,1.31,11.29,5.58,15.72.81.84.71,2.21-.43,3.08-1.08.82-2.25.64-3.21-.15-1.56-1.29-2.73-2.95-3.33-4.87-.88-2.84-1.73-5.71-2.25-8.64-1.65-9.41-6.44-15.88-16.24-17.76-1.85-.36-3.35-1-2.93-3.11.3-1.54,1.79-1.77,3.22-1.63Z"/>
        <path class="cls-3" d="M392.08,185.64c.36-5.88,2.74-10.05,6.59-13.16,6.29-5.09,12.1-10.4,13.57-18.9.27-1.59,1.29-2.36,2.81-2.08,1.93.37,2.15,1.89,1.73,3.47-1.46,5.49-3.36,10.77-7.72,14.74-2.7,2.45-5.58,4.71-8.13,7.31-2.85,2.91-5.09,6.24-3.52,10.65.64,1.8,1.58,3.74-1.09,4.37-2.33.55-3.06-1.52-3.62-3.27-.4-1.25-.51-2.58-.62-3.14Z"/>
        <path class="cls-3" d="M477.08,49.64c.36-5.88,2.74-10.05,6.59-13.16,6.29-5.09,12.1-10.4,13.57-18.9.27-1.59,1.29-2.36,2.81-2.08,1.93.37,2.15,1.89,1.73,3.47-1.46,5.49-3.36,10.77-7.72,14.74-2.7,2.45-5.58,4.71-8.13,7.31-2.85,2.91-5.09,6.24-3.52,10.65.64,1.8,1.58,3.74-1.09,4.37-2.33.55-3.06-1.52-3.62-3.27-.4-1.25-.51-2.58-.62-3.14Z"/>
        <path class="cls-3" d="M122.26,72.18c.22-5.08,2.11-9.12,5.67-12.13,6.54-5.52,13-10.98,14.6-20.08.26-1.47,1.44-2.39,2.96-1.87,1.8.62,1.77,2.24,1.38,3.77-1.77,6.94-4.92,13.02-10.82,17.43-2.93,2.19-5.79,4.52-7.63,7.79-1.27,2.25-2.06,4.74-.96,7.16.88,1.93,1.43,3.81-.8,4.54-2.61.86-3.22-1.72-3.92-3.51-.41-1.05-.36-2.28-.47-3.1Z"/>
        <path class="cls-3" d="M564.73,405.64c-13.57-3.28-22.01-16.36-18.96-29.42.41-1.74.68-4.05,3.23-3.56,2.58.5,1.83,2.61,1.52,4.44-2.32,13.5,6.94,24.57,20.53,24.67,1.51.01,3.39-1.06,4.42,1.08-.58,3.26-3.28,2.59-5.42,2.87-1.77.23-3.53-1.07-5.32-.08Z"/>
        <path class="cls-3" d="M583.99,279.86c-1.32.14-2.09-.47-2.46-1.47-.67-1.81.41-2.78,1.9-3.46,4.09-1.87,7.85-4.27,11.36-7.07,6.04-4.83,10.83-10.69,14.47-17.49.88-1.64,1.62-3.66,3.97-2.52,2.48,1.21,1.09,3.16.29,4.67-6.23,11.8-15.39,20.59-27.38,26.44-.74.36-1.52.64-2.15.89Z"/>
        <path class="cls-3" d="M256.88,227.64c-8.14-2.57-15.12-12.94-14.32-21.21.13-1.29.67-2.31,1.92-2.58,1.35-.29,2.22.59,2.58,1.81.47,1.59.83,3.21,1.17,4.84,1.06,5.06,3.31,9.35,7.79,12.23,3.3,2.83,6.98,1.75,10.63,1.05,4.29-1.7,8.58-2.04,12.93-.18,2.07.88,3.59,2.26,4.47,4.32.6,1.41,1.13,2.92-.54,3.93-1.65,1-2.93.17-3.55-1.39-.68-1.69-2.27-2.29-3.42-3.41-1.33-1.48-3.21-.96-4.51-.57-5.01,1.49-10.15.34-15.15,1.16Z"/>
        <path class="cls-3" d="M591.32,88.57c-6.07-.23-10-3-12.74-7.17-5.08-7.75-5.41-16.21-2.76-24.89.48-1.57,1.16-3.4,3.41-2.68,2.25.72,1.7,2.42,1.13,4.1-2.3,6.79-2.05,13.43,1.59,19.71,1.99,3.43,4.76,6.04,9.05,6.13,1.81.04,3.67.16,3.62,2.33-.05,2.5-2.28,2.37-3.31,2.47Z"/>
        <path class="cls-3" d="M157.87,240.59c-5.6-.4-9.67-3.31-12.52-7.94-4.66-7.59-4.82-15.7-2.4-24.02.47-1.6,1.16-3.49,3.32-2.89,2.58.72,1.73,2.68,1.16,4.48-2.14,6.63-1.88,13.12,1.65,19.24,2.07,3.6,4.92,6.32,9.45,6.27,1.94-.02,3.52.52,3.26,2.67-.26,2.09-2.2,2.16-3.92,2.19Z"/>
        <path class="cls-3" d="M80.87,37.59c-5.6-.4-9.67-3.31-12.52-7.94-4.66-7.59-4.82-15.7-2.4-24.02.47-1.6,1.16-3.49,3.32-2.89,2.58.72,1.73,2.68,1.16,4.48-2.14,6.63-1.88,13.12,1.65,19.24,2.07,3.6,4.92,6.32,9.45,6.27,1.94-.02,3.52.52,3.26,2.67-.26,2.09-2.2,2.16-3.92,2.19Z"/>
        <path class="cls-3" d="M609.87,325.59c-5.6-.4-9.67-3.31-12.52-7.94-4.66-7.59-4.82-15.7-2.4-24.02.47-1.6,1.16-3.49,3.32-2.89,2.58.72,1.73,2.68,1.16,4.48-2.14,6.63-1.88,13.12,1.65,19.24,2.07,3.6,4.92,6.32,9.45,6.27,1.94-.02,3.52.52,3.26,2.67-.26,2.09-2.2,2.16-3.92,2.19Z"/>
        <path class="cls-3" d="M415.39,285.22c-4.97.09-8.63-3.28-8.8-8.09-.17-4.97,3.6-8.87,8.6-8.9,4.7-.03,8.58,3.76,8.62,8.44.04,4.79-3.58,8.47-8.42,8.56Z"/>
        <path class="cls-3" d="M153.99,163.41c0,4.53-4.01,8.61-8.51,8.66-4.83.05-8.92-4.08-8.77-8.86.14-4.59,4.16-8.47,8.73-8.41,4.49.06,8.56,4.15,8.55,8.62Z"/>
        <path class="cls-3" d="M503.16,401.85c-4.62-.03-8.56-3.94-8.6-8.52-.04-4.91,3.97-8.85,8.85-8.71,4.61.14,8.48,4.15,8.39,8.71-.09,4.56-4.14,8.55-8.64,8.52Z"/>
        <path class="cls-3" d="M449.44,28.99c-4.67.02-8.61-3.74-8.73-8.33-.12-4.82,3.92-8.92,8.72-8.85,4.65.07,8.5,3.98,8.48,8.6-.03,4.67-3.87,8.56-8.46,8.58Z"/>
        <path class="cls-3" d="M91.83,337.79c-.32,15.09,7.22,23.05,22.39,23.66q3.25.13,2.78,3.53c-2.99.67-6.1-.18-9.07.66-10.35-1.82-17.01-7.75-19.9-17.88.68-3.55-.86-7.15.15-10.67.36-1.28-.43-3.52,1.63-3.59,2.24-.08,1.34,2.11,1.63,3.4.07.31.24.6.4.89Z"/>
        <path class="cls-3" d="M180.07,67.28c-.35,4.64-4.46,8.16-9.15,7.85-4.67-.31-8.29-4.36-8.01-8.98.29-4.87,4.65-8.65,9.41-8.15,4.62.49,8.1,4.66,7.75,9.28Z"/>
        <path class="cls-3" d="M315.83,220.95c-4.67.07-8.61-3.69-8.74-8.34-.14-4.9,3.81-8.95,8.66-8.9,4.74.05,8.42,3.79,8.4,8.56-.01,4.86-3.61,8.6-8.32,8.68Z"/>
        <path class="cls-3" d="M225.15,97.21c.06,4.78-3.59,8.65-8.24,8.74-4.97.1-8.89-3.79-8.81-8.73.08-4.7,3.84-8.42,8.56-8.46,4.74-.04,8.43,3.64,8.48,8.45Z"/>
        <path class="cls-3" d="M101.06,51.99c-4.74.14-8.63-3.49-8.78-8.21-.17-5.06,3.5-8.94,8.49-8.98,4.72-.04,8.52,3.68,8.58,8.4.07,4.71-3.65,8.65-8.29,8.79Z"/>
        <path class="cls-3" d="M515.6,74.62c-.05,4.63-3.93,8.49-8.56,8.51-4.97.02-8.73-3.86-8.58-8.88.13-4.65,4.09-8.44,8.7-8.34,4.59.11,8.48,4.12,8.43,8.71Z"/>
        <path class="cls-3" d="M210.93,338.54c.15,4.68-3.56,8.62-8.28,8.77-4.89.16-8.7-3.23-8.97-7.99-.29-5.03,3.34-8.9,8.43-8.98,4.81-.08,8.66,3.5,8.81,8.2Z"/>
        <path class="cls-3" d="M455.07,376.21c.04,4.79-3.55,8.59-8.25,8.74-4.84.15-8.91-3.87-8.83-8.71.08-4.76,3.8-8.46,8.55-8.52,4.59-.06,8.49,3.82,8.53,8.48Z"/>
        <path class="cls-3" d="M495.04,210.66c0,4.93-3.45,8.45-8.33,8.53-4.78.07-8.65-3.57-8.74-8.24-.09-5.01,3.73-8.92,8.66-8.85,4.75.07,8.41,3.8,8.41,8.55Z"/>
        <path class="cls-3" d="M501.94,272.99c.06,4.73-3.58,8.63-8.22,8.8-4.89.18-8.95-3.79-8.88-8.67.07-4.75,3.76-8.42,8.52-8.46,4.76-.04,8.52,3.61,8.59,8.34Z"/>
        <path class="cls-3" d="M623.78,353.88c-.19,4.76-4.02,8.35-8.77,8.23-4.83-.11-8.53-3.85-8.46-8.54.06-4.92,4.15-8.79,9.01-8.54,4.7.24,8.41,4.23,8.22,8.85Z"/>
        <path class="cls-3" d="M449.94,179.87c.01,4.81-3.53,8.4-8.41,8.52-5.07.13-8.88-3.63-8.78-8.65.09-4.72,3.88-8.33,8.69-8.28,4.89.05,8.49,3.61,8.5,8.41Z"/>
        <path class="cls-3" d="M294.05,273.71c.06,4.89-3.42,8.54-8.23,8.64-4.99.11-8.94-3.74-8.87-8.63.07-4.7,3.89-8.42,8.6-8.4,4.82.02,8.44,3.59,8.49,8.4Z"/>
        <path class="cls-3" d="M575.7,248.55c.1,4.65-3.64,8.5-8.37,8.6-4.98.11-8.65-3.24-8.84-8.06-.2-4.9,3.7-8.98,8.58-8.97,4.72,0,8.53,3.73,8.64,8.43Z"/>
        <path class="cls-3" d="M285.21,54.78c4.68.07,8.53,3.94,8.49,8.54-.04,4.7-3.86,8.58-8.5,8.62-4.89.04-8.75-3.93-8.6-8.87.15-4.84,3.8-8.36,8.61-8.29Z"/>
        <path class="cls-3" d="M82.77,226.73c-.14,4.71-3.99,8.43-8.67,8.37-5.02-.07-8.65-3.95-8.41-8.99.23-4.75,4.09-8.33,8.8-8.16,4.69.18,8.41,4.12,8.28,8.78Z"/>
        <path class="cls-3" d="M280.38,376.89c4.55-.02,8.56,3.94,8.6,8.49.04,4.8-3.55,8.52-8.31,8.64-4.96.12-9.01-3.8-8.9-8.6.11-4.68,3.98-8.5,8.61-8.53Z"/>
        <path class="cls-3" d="M232.05,159.85c-.01,4.91-3.51,8.42-8.38,8.45-4.83.02-8.65-3.58-8.73-8.24-.09-4.93,3.83-8.87,8.75-8.8,4.68.07,8.38,3.87,8.37,8.6Z"/>
        <path class="cls-3" d="M569,330.96c.06,4.89-3.4,8.6-8.18,8.76-4.92.16-8.97-3.78-8.87-8.64.09-4.73,3.82-8.44,8.55-8.5,4.79-.07,8.45,3.54,8.5,8.39Z"/>
        <path class="cls-3" d="M200.27,264.75c-.08,4.88-3.66,8.37-8.54,8.31-5.05-.06-8.6-3.84-8.41-8.97.17-4.71,4.09-8.35,8.78-8.18,4.66.18,8.24,4.05,8.17,8.83Z"/>
        <path class="cls-3" d="M379.11,156.67c.01,5.01-3.31,8.42-8.28,8.49-4.79.07-8.66-3.55-8.74-8.19-.09-4.97,3.75-8.92,8.64-8.89,4.7.03,8.37,3.78,8.38,8.58Z"/>
        <path class="cls-3" d="M344.01,348.4c-4.85-.05-8.49-3.66-8.51-8.44-.03-5.04,3.79-8.77,8.8-8.59,4.77.17,8.46,4,8.33,8.66-.13,4.74-3.92,8.42-8.62,8.37Z"/>
        <path class="cls-3" d="M562.93,8.66c4.79.03,8.54,3.7,8.57,8.38.03,4.89-3.97,8.79-8.89,8.66-4.68-.12-8.25-3.95-8.16-8.76.09-4.94,3.55-8.32,8.48-8.28Z"/>
        <path class="cls-3" d="M566.28,165.56c.02,4.94-3.58,8.65-8.39,8.64-5.06-.01-8.6-3.44-8.62-8.37-.03-4.87,3.6-8.65,8.37-8.74,4.7-.08,8.62,3.76,8.64,8.47Z"/>
        <path class="cls-3" d="M53.34,352.89c-.05,4.84-3.79,8.58-8.53,8.52-4.9-.07-8.56-3.74-8.49-8.54.07-4.94,3.62-8.47,8.52-8.47,4.85,0,8.54,3.69,8.49,8.49Z"/>
        <path class="cls-3" d="M54.3,98.84c.05,4.82-3.63,8.65-8.36,8.68-4.82.03-8.6-3.61-8.69-8.37-.09-4.8,3.54-8.53,8.39-8.62,4.86-.1,8.6,3.5,8.65,8.32Z"/>
        <path class="cls-3" d="M336.58,86.42c-4.85-.09-8.48-3.82-8.4-8.62.09-4.8,3.85-8.46,8.66-8.42,4.7.04,8.44,3.92,8.37,8.68-.07,4.83-3.8,8.45-8.63,8.36Z"/>
        <path class="cls-3" d="M152.71,88.1c-.82,9.77-5.47,18.15-14.37,24-1.57,1.03-3.66,2.69-5.19.3-1.65-2.58,1.06-3.3,2.59-4.34,7.49-5.06,11.63-12.06,12.18-21.11.12-1.97-.32-4.27,2.6-4.44,1.63-.09,2.32,1.55,2.19,5.59Z"/>
        <path class="cls-3" d="M430.56,41.17c-.81,10.6-5.62,18.87-14.49,24.75-1.67,1.1-3.63,2.54-5.12.16-1.43-2.28.91-3.09,2.36-4.07,7.6-5.17,12.05-12.16,12.42-21.49.08-2.04-.07-4.22,2.75-4.32,1.51-.06,2.21,1.83,2.09,4.97Z"/>
        <path class="cls-3" d="M422.64,200.29c-.84,11.12-5.78,19.55-14.9,25.46-1.49.97-3.39,2.26-4.75,0-1.37-2.28.69-3.1,2.23-4.11,7.73-5.08,12.04-12.18,12.59-21.49.11-1.9-.45-4.56,2.61-4.32,2.88.23,2.04,2.88,2.23,4.46Z"/>
        <path class="cls-3" d="M601.85,396.82c1.87-10.77,9.21-16.34,18.81-19.76,1.64-.59,3.41-1,4.17,1.16.76,2.17-.86,2.87-2.56,3.39-8.4,2.55-13.88,8.02-16.4,16.44-1.61,2.91-.34,6.03-.66,9.04-.11,1.06.47,2.59-1.23,2.6-1.37,0-1.71-1.28-1.78-2.53-.2-3.44.4-6.91-.34-10.33Z"/>
        <path class="cls-3" d="M164.97,346.83c.98-7.8,4.33-14.15,11.32-18.19,1.58-.91,3.4-2.06,4.65.32,1.06,2.02-.51,2.95-2.06,3.74-6.24,3.21-7.99,9.32-9.88,15.34-1.46,3.37-.38,6.9-.62,10.35-.14,1.97-.46,3.29-2.84,2.66l.12.03c-.89-4.72.38-9.54-.7-14.25Z"/>
        <path class="cls-3" d="M91.83,337.79c-.55-1.13-1.1-2.26-1.9-3.89-2.45,4.67.42,9.67-1.9,13.86-1.06-3.49-1.54-7.05-.7-10.64.47-2.02-.07-5.45,3.42-4.68,3.13.69,1.26,3.42,1.08,5.35Z"/>
        <path class="cls-3" d="M601.85,396.82c2.04,3.81-.35,8.34,2.1,13.45,1.26-4.85.43-8.55.79-12.14.01-.11.19-.3.28-.29.29.03.58.14.87.21.08,3.13.13,6.26.26,9.38.06,1.5.4,3.16-1.72,3.41-2.34.29-2.71-1.49-2.81-3.19-.21-3.61-.57-7.24.24-10.84Z"/>
        <path class="cls-3" d="M116.77,223.83c-1.44-5.3-1.37-10.6-.02-15.9,1.31,5.3.93,10.6.02,15.9Z"/>
        <path class="cls-3" d="M549.57,71.92c-1.43-5.3-1.34-10.6-.02-15.9,1.27,5.3.95,10.6.02,15.9Z"/>
        <path class="cls-3" d="M256.88,227.64c6.48-1.01,13-1.54,19.56-1.71.11,0,.32.18.31.25-.03.29-.13.58-.21.86-6.57-.42-13.04,2.66-19.66.59Z"/>
        <path class="cls-3" d="M451.7,279.93c-4.94,1.56-9.91,1.3-14.88.14,4.95-.64,9.9-1.97,14.88-.14Z"/>
        <path class="cls-3" d="M107.09,179.95c-.03,4.97.23,9.95-.95,14.85-1.37-5.06-1.27-10.02.95-14.85Z"/>
        <path class="cls-3" d="M607.61,113.13c-4.97,1.29-9.94,1.38-14.89-.09,4.97-1.19,9.94-1.03,14.89.09Z"/>
        <path class="cls-3" d="M386.67,336.78c-1.52-5.28-1.28-10.58-.14-15.88,1.31,5.28,1.13,10.58.14,15.88Z"/>
        <path class="cls-3" d="M200.8,295.99c-2.64,1.69-5.13-.77-7.84-.28-1.92.35-3.81.22-5.02,2.08-1.56-2.8.34-3.44,2.43-3.59,3.59-.25,7.11.24,10.43,1.79Z"/>
        <path class="cls-3" d="M331.65,169.88c-1.56-1-.27-3.12-1.49-4.33-2.35,1.38-.56,3.9-2.06,5.67-.16-1.34-.29-2.45-.43-3.56-.01-2.08.36-4.52,2.96-3.82,3.81,1.02,1,3.93,1.02,6.04Z"/>
        <path class="cls-3" d="M564.73,405.64c1.86-1.61,4.08-.75,6.13-.81,1.89-.05,3.57-.16,4.61-1.98,1.07,2.09.23,2.97-1.91,3.35-3.01.53-5.92.11-8.83-.56Z"/>
        <path class="cls-3" d="M165.55,361.06c2.53-.38,2.33-2.3,2.32-4.12-.01-3.12-.37-6.3.14-9.33.29-1.71.59.35,1,.44.05,3.66.14,7.31.13,10.97,0,2.66-1.02,3.78-3.59,2.04Z"/>
        <path class="cls-3" d="M375.99,295.89c1.19,3.96,1.32,7.91-.04,11.86-1.19-3.96-1.05-7.91.04-11.86Z"/>
        <path class="cls-3" d="M19.15,62.03c1.63,1.48-.11,3.93,1.65,5.57,2.08-1.05.43-3.33,1.51-4.62.06-.07.32-.04.46.02.15.06.26.19.39.3-.91,2.01,1.67,6.51-2.68,5.77-3.55-.61-1.54-4.49-1.34-7.03Z"/>
        <path class="cls-3" d="M108.75,282.79c-1.78-2.88-.51-6.04-.82-9.06-.19-1.76.28-3.75-2.32-4.09,2.39-1.9,3.67-1.11,3.64,1.72-.03,3.81-.32,7.62-.5,11.42Z"/>
        <path class="cls-3" d="M193.94,63.99c1.16,4.23,1.68,8.52,1.09,12.9-1.69-4.19-1.79-8.51-1.09-12.9Z"/>
        <path class="cls-3" d="M266.66,223.78c.15.06.3.13.45.19.15.07.29.14.44.2-1.99,1.69-9.95.69-11.52-1.45,3.43,1.47,7.07.91,10.63,1.05Z"/>
        <path class="cls-3" d="M164.97,346.83c1.82,4.67.57,9.49.7,14.25-1.98-4.66-.99-9.47-.7-14.25Z"/>
        <path class="cls-3" d="M105.72,269.57v13.16c.26.53-.87.25-.6-.21.24-.41-.2-1.22-.33-1.86.27-3.7-1.13-7.55.93-11.1Z"/>
        <path class="cls-3" d="M138.79,303.8c-1.91-3.57-.55-7.28-.35-10.95.18,3.06.36,6.12.54,9.18-.06.59-.13,1.19-.19,1.78Z"/>
        <path class="cls-3" d="M340.68,131.1c.16-2.73.31-5.45.47-8.18.39,3.34,1.48,6.72-.26,9.96-.07-.59-.14-1.18-.21-1.78Z"/>
        <path class="cls-3" d="M174.11,170.06c-1.07-.2-2.15-.4-3.22-.6l.03-.28c2.62,0,5.24,0,7.87.02.04,0,.13.28.11.41-.02.15-.14.29-.22.43l-4.56.03Z"/>
        <path class="cls-3" d="M156.63,403.61c-2.35,2.26-5.11.86-7.71.83-.02,0-.09-.29-.06-.42.03-.15.16-.28.24-.42,2.51,0,5.02,0,7.53.01Z"/>
        <path class="cls-3" d="M147.91,407.63c3.3-1.38,6.61-1.41,9.91.01-3.3.65-6.6.65-9.91-.01Z"/>
        <path class="cls-3" d="M107.93,365.65c2.93-1.48,6.02-.9,9.07-.66-2.9,1.96-6.02.85-9.07.66Z"/>
        <path class="cls-1" d="M414.84,272.99c2.54,0,3.92,1.33,4.05,3.59.13,2.27-1.19,3.88-3.51,4-2.3.11-3.81-1.3-3.95-3.59-.13-2.3,1.22-3.66,3.41-4Z"/>
        <path class="cls-1" d="M145.26,159.62c2.26.24,3.74,1.51,3.81,3.76.08,2.3-1.43,3.76-3.69,3.81-2.27.05-3.8-1.42-3.84-3.68-.04-2.25,1.42-3.57,3.72-3.89Z"/>
        <path class="cls-1" d="M506.91,392.91c-.1,2.31-1.21,3.84-3.53,4.01-2.34.17-3.81-1.26-3.98-3.49-.18-2.28,1.26-3.81,3.5-3.96,2.25-.16,3.67,1.15,4.01,3.45Z"/>
        <path class="cls-1" d="M449.43,24.21c-2.22-.24-3.75-1.34-3.85-3.68-.1-2.36,1.41-3.81,3.58-3.91,2.21-.09,3.78,1.35,3.88,3.64.1,2.29-1.31,3.6-3.61,3.95Z"/>
        <path class="cls-1" d="M175.4,66.58c-.34,2.39-1.78,3.84-3.95,3.81-2.14-.04-3.76-1.43-3.69-3.82.07-2.3,1.43-3.72,3.78-3.71,2.41,0,3.39,1.69,3.85,3.72Z"/>
        <path class="cls-1" d="M315.75,216.14c-2.05-.4-3.78-1.16-3.8-3.7-.01-2.42,1.37-3.79,3.61-3.85,2.24-.06,3.84,1.33,3.92,3.62.08,2.3-1.46,3.53-3.73,3.93Z"/>
        <path class="cls-1" d="M216.7,101.14c-2.3-.33-3.8-1.45-3.75-3.86.05-2.37,1.53-3.73,3.8-3.7,2.28.03,3.79,1.55,3.75,3.81-.04,2.24-1.54,3.55-3.81,3.76Z"/>
        <path class="cls-1" d="M100.92,39.43c2.2.52,3.82,1.66,3.71,3.98-.12,2.51-1.76,3.93-4.24,3.66-2.18-.23-3.55-1.6-3.32-4.03.23-2.38,1.84-3.27,3.86-3.61Z"/>
        <path class="cls-1" d="M510.78,74.81c-.42,2.24-1.75,3.67-4.03,3.53-2.28-.15-3.76-1.82-3.59-4,.17-2.09,1.63-3.71,4.04-3.54,2.37.16,3.45,1.7,3.58,4.01Z"/>
        <path class="cls-1" d="M202.58,334.98c2.3.35,3.56,1.86,3.4,4.09-.16,2.22-1.54,3.73-3.98,3.5-2.34-.21-3.68-1.78-3.51-4.03.16-2.23,1.66-3.53,4.09-3.57Z"/>
        <path class="cls-1" d="M450.47,376.27c-.27,2.28-1.54,3.76-3.81,3.82-2.29.06-3.78-1.35-3.86-3.67-.08-2.37,1.42-3.76,3.68-3.82,2.3-.07,3.55,1.45,3.98,3.67Z"/>
        <path class="cls-1" d="M490.47,210.61c-.34,2.28-1.57,3.89-3.85,3.88-2.21,0-3.78-1.37-3.82-3.76-.04-2.38,1.32-3.76,3.69-3.79,2.37-.03,3.52,1.5,3.98,3.66Z"/>
        <path class="cls-1" d="M493.31,269.22c2.37.45,3.98,1.69,3.92,3.97-.06,2.2-1.47,3.79-3.84,3.73-2.29-.06-3.73-1.41-3.73-3.8,0-2.45,1.7-3.38,3.65-3.9Z"/>
        <path class="cls-1" d="M615.38,357.53c-2.22-.24-3.82-1.4-3.97-3.66-.15-2.25,1.11-3.82,3.49-3.98,2.38-.16,3.82,1.2,3.98,3.48.16,2.31-1.31,3.6-3.51,4.16Z"/>
        <path class="cls-1" d="M441.52,183.74c-2.4-.13-3.81-1.4-3.89-3.65-.08-2.22,1.2-3.81,3.49-3.96,2.57-.17,4.07,1.49,4.08,3.86,0,2.15-1.43,3.56-3.68,3.75Z"/>
        <path class="cls-1" d="M285.84,269.97c2.15.4,3.68,1.75,3.56,3.93-.12,2.37-1.69,3.99-4.26,3.69-2.25-.26-3.51-1.78-3.31-4.09.2-2.29,1.64-3.45,4.01-3.54Z"/>
        <path class="cls-1" d="M566.9,244.98c2.59.07,3.93,1.46,3.92,3.73,0,2.27-1.45,3.78-3.75,3.8-2.34.02-3.78-1.56-3.78-3.78,0-2.21,1.37-3.65,3.61-3.76Z"/>
        <path class="cls-1" d="M288.85,63.61c-.34,2.27-1.72,3.6-4.03,3.44-2.29-.16-3.7-1.78-3.55-3.98.14-2.22,1.8-3.72,4.04-3.55,2.18.17,3.55,1.64,3.54,4.09Z"/>
        <path class="cls-1" d="M74.35,230.45c-2.21-.3-3.88-1.42-3.97-3.71-.1-2.25,1.28-3.79,3.61-3.92,2.34-.13,3.81,1.19,3.94,3.53.13,2.38-1.49,3.5-3.58,4.1Z"/>
        <path class="cls-1" d="M284.29,385.27c-.4,2.69-1.84,4.2-4.04,4.07-2.12-.12-3.76-1.58-3.62-3.97.13-2.31,1.57-3.64,3.93-3.6,2.46.05,3.31,1.78,3.74,3.5Z"/>
        <path class="cls-1" d="M223.79,163.72c-2.19-.18-3.78-1.26-3.99-3.51-.21-2.24,1-3.8,3.29-4.08,2.59-.31,4.16,1.26,4.31,3.61.13,2.14-1.33,3.58-3.61,3.98Z"/>
        <path class="cls-1" d="M564.48,331.12c-.31,2.12-1.45,3.72-3.77,3.76-2.22.04-3.86-1.14-3.9-3.6-.04-2.38,1.39-3.83,3.64-3.94,2.3-.11,3.59,1.41,4.03,3.78Z"/>
        <path class="cls-1" d="M191.71,268.48c-2.17-.53-3.75-1.61-3.67-4.04.08-2.41,1.58-3.71,3.88-3.64,2.3.07,3.75,1.52,3.68,3.87-.07,2.35-1.71,3.43-3.89,3.81Z"/>
        <path class="cls-1" d="M370.45,152.92c2.42.06,3.9,1.39,4.06,3.54.17,2.48-1.47,4.1-3.9,4.08-2.14-.02-3.66-1.42-3.69-3.77-.03-2.35,1.36-3.53,3.53-3.85Z"/>
        <path class="cls-1" d="M343.77,336c2.32.15,3.9,1.29,4.03,3.61.12,2.26-1.06,3.87-3.5,4-2.4.13-3.89-1.3-4.06-3.51-.18-2.25,1.27-3.66,3.53-4.1Z"/>
        <path class="cls-1" d="M563.18,20.88c-2.4-.04-3.92-1.31-4.1-3.47-.2-2.46,1.37-4.14,3.82-4.1,2.09.03,3.72,1.32,3.73,3.71.02,2.3-1.2,3.63-3.46,3.86Z"/>
        <path class="cls-1" d="M558.04,161.89c2.12.35,3.57,1.51,3.51,3.86-.06,2.29-1.54,3.76-3.7,3.78-2.43.01-4.07-1.62-3.89-4.1.16-2.14,1.67-3.46,4.08-3.54Z"/>
        <path class="cls-1" d="M44.94,348.94c2.17.53,3.81,1.71,3.69,4.03-.11,2.22-1.56,3.73-3.92,3.65-2.33-.08-3.69-1.54-3.64-3.88.06-2.37,1.67-3.43,3.86-3.8Z"/>
        <path class="cls-1" d="M49.76,99c-.46,2.09-1.52,3.73-3.83,3.75-2.55.03-3.98-1.52-3.86-4.03.1-2.28,1.69-3.59,3.9-3.53,2.25.06,3.42,1.61,3.79,3.8Z"/>
        <path class="cls-1" d="M340.65,77.84c-.35,2.24-1.49,3.83-3.82,3.87-2.29.05-3.81-1.32-3.88-3.66-.06-2.34,1.36-3.77,3.67-3.87,2.38-.1,3.51,1.5,4.02,3.65Z"/>
      </g>
    </pattern>
  </defs>
  <g id="Capa_1-2" data-name="Capa 1">
    <rect class="cls-4" width="1922" height="1080"/>
  </g>
</svg>